<svg id="visual" viewBox="0 0 900 250" width="900" height="250" xmlns="http://www.w3.org/2000/svg" xmlns:xlink="http://www.w3.org/1999/xlink" version="1.1"><rect x="0" y="0" width="900" height="250" fill="#CFDBD5"></rect><path d="M0 111L16.7 113.3C33.3 115.7 66.7 120.3 100 110.8C133.3 101.3 166.7 77.7 200 74C233.3 70.3 266.7 86.7 300 91.8C333.3 97 366.7 91 400 84.5C433.3 78 466.7 71 500 72.7C533.3 74.3 566.7 84.7 600 84.2C633.3 83.7 666.7 72.3 700 76.8C733.3 81.3 766.7 101.7 800 107C833.3 112.3 866.7 102.7 883.3 97.8L900 93L900 251L883.3 251C866.7 251 833.3 251 800 251C766.7 251 733.3 251 700 251C666.7 251 633.3 251 600 251C566.7 251 533.3 251 500 251C466.7 251 433.3 251 400 251C366.7 251 333.3 251 300 251C266.7 251 233.3 251 200 251C166.7 251 133.3 251 100 251C66.7 251 33.3 251 16.7 251L0 251Z" fill="#0a715f"></path><path d="M0 118L16.7 122.3C33.3 126.7 66.7 135.3 100 141.5C133.3 147.7 166.7 151.3 200 143.8C233.3 136.3 266.7 117.7 300 118.7C333.3 119.7 366.7 140.3 400 139.3C433.3 138.3 466.7 115.7 500 111.7C533.3 107.7 566.7 122.3 600 123.7C633.3 125 666.7 113 700 107C733.3 101 766.7 101 800 108.3C833.3 115.7 866.7 130.3 883.3 137.7L900 145L900 251L883.3 251C866.7 251 833.3 251 800 251C766.7 251 733.3 251 700 251C666.7 251 633.3 251 600 251C566.7 251 533.3 251 500 251C466.7 251 433.3 251 400 251C366.7 251 333.3 251 300 251C266.7 251 233.3 251 200 251C166.7 251 133.3 251 100 251C66.7 251 33.3 251 16.7 251L0 251Z" fill="#085e4f"></path><path d="M0 155L16.7 156.7C33.3 158.3 66.7 161.7 100 161.5C133.3 161.3 166.7 157.7 200 158.5C233.3 159.3 266.7 164.7 300 164.3C333.3 164 366.7 158 400 160.7C433.3 163.3 466.7 174.7 500 178C533.3 181.3 566.7 176.7 600 174.2C633.3 171.7 666.7 171.3 700 166.5C733.3 161.7 766.7 152.3 800 154C833.3 155.7 866.7 168.3 883.3 174.7L900 181L900 251L883.3 251C866.7 251 833.3 251 800 251C766.7 251 733.3 251 700 251C666.7 251 633.3 251 600 251C566.7 251 533.3 251 500 251C466.7 251 433.3 251 400 251C366.7 251 333.3 251 300 251C266.7 251 233.3 251 200 251C166.7 251 133.3 251 100 251C66.7 251 33.3 251 16.7 251L0 251Z" fill="#064b3f"></path><path d="M0 216L16.7 215.7C33.3 215.3 66.7 214.7 100 213.7C133.3 212.7 166.7 211.3 200 208.7C233.3 206 266.7 202 300 197C333.3 192 366.7 186 400 188.8C433.3 191.7 466.7 203.3 500 208.7C533.3 214 566.7 213 600 209.3C633.3 205.7 666.7 199.3 700 200.5C733.3 201.7 766.7 210.3 800 210.2C833.3 210 866.7 201 883.3 196.5L900 192L900 251L883.3 251C866.7 251 833.3 251 800 251C766.7 251 733.3 251 700 251C666.7 251 633.3 251 600 251C566.7 251 533.3 251 500 251C466.7 251 433.3 251 400 251C366.7 251 333.3 251 300 251C266.7 251 233.3 251 200 251C166.7 251 133.3 251 100 251C66.7 251 33.3 251 16.7 251L0 251Z" fill="#053930"></path></svg>