<svg id="visual" viewBox="0 0 900 100" width="900" height="100" xmlns="http://www.w3.org/2000/svg" xmlns:xlink="http://www.w3.org/1999/xlink" version="1.1"><rect x="0" y="0" width="900" height="100" fill="#CFDBD5"></rect><path d="M0 50L21.5 55.2C43 60.3 86 70.7 128.8 75.8C171.7 81 214.3 81 257.2 79.3C300 77.7 343 74.3 385.8 72.8C428.7 71.3 471.3 71.7 514.2 69.3C557 67 600 62 642.8 61.2C685.7 60.3 728.3 63.7 771.2 63.3C814 63 857 59 878.5 57L900 55L900 0L878.5 0C857 0 814 0 771.2 0C728.3 0 685.7 0 642.8 0C600 0 557 0 514.2 0C471.3 0 428.7 0 385.8 0C343 0 300 0 257.2 0C214.3 0 171.7 0 128.8 0C86 0 43 0 21.5 0L0 0Z" fill="#065143"></path><path d="M0 52L21.5 52.7C43 53.3 86 54.7 128.8 57.2C171.7 59.7 214.3 63.3 257.2 60.7C300 58 343 49 385.8 45C428.7 41 471.3 42 514.2 45.3C557 48.7 600 54.3 642.8 55.3C685.7 56.3 728.3 52.7 771.2 53.7C814 54.7 857 60.3 878.5 63.2L900 66L900 0L878.5 0C857 0 814 0 771.2 0C728.3 0 685.7 0 642.8 0C600 0 557 0 514.2 0C471.3 0 428.7 0 385.8 0C343 0 300 0 257.2 0C214.3 0 171.7 0 128.8 0C86 0 43 0 21.5 0L0 0Z" fill="#05453a"></path><path d="M0 34L21.5 36.2C43 38.3 86 42.7 128.8 42.5C171.7 42.3 214.3 37.7 257.2 35C300 32.3 343 31.7 385.8 31.2C428.7 30.7 471.3 30.3 514.2 33.8C557 37.3 600 44.7 642.8 47.3C685.7 50 728.3 48 771.2 46.2C814 44.3 857 42.7 878.5 41.8L900 41L900 0L878.5 0C857 0 814 0 771.2 0C728.3 0 685.7 0 642.8 0C600 0 557 0 514.2 0C471.3 0 428.7 0 385.8 0C343 0 300 0 257.2 0C214.3 0 171.7 0 128.8 0C86 0 43 0 21.5 0L0 0Z" fill="#043a31"></path><path d="M0 34L21.5 33.3C43 32.7 86 31.3 128.8 28.7C171.7 26 214.3 22 257.2 20C300 18 343 18 385.8 19.5C428.7 21 471.3 24 514.2 27.2C557 30.3 600 33.7 642.8 35.3C685.7 37 728.3 37 771.2 34.2C814 31.3 857 25.7 878.5 22.8L900 20L900 0L878.5 0C857 0 814 0 771.2 0C728.3 0 685.7 0 642.8 0C600 0 557 0 514.2 0C471.3 0 428.7 0 385.8 0C343 0 300 0 257.2 0C214.3 0 171.7 0 128.8 0C86 0 43 0 21.5 0L0 0Z" fill="#042f28"></path><path d="M0 8L21.5 9.5C43 11 86 14 128.8 14.2C171.7 14.3 214.3 11.7 257.2 10.3C300 9 343 9 385.8 11.2C428.7 13.3 471.3 17.7 514.2 18.2C557 18.7 600 15.3 642.8 14.5C685.7 13.7 728.3 15.3 771.2 14.8C814 14.3 857 11.7 878.5 10.3L900 9L900 0L878.5 0C857 0 814 0 771.2 0C728.3 0 685.7 0 642.8 0C600 0 557 0 514.2 0C471.3 0 428.7 0 385.8 0C343 0 300 0 257.2 0C214.3 0 171.7 0 128.8 0C86 0 43 0 21.5 0L0 0Z" fill="#03251f"></path></svg>