<svg id="visual" viewBox="0 0 900 100" width="900" height="100" xmlns="http://www.w3.org/2000/svg" xmlns:xlink="http://www.w3.org/1999/xlink" version="1.1"><rect x="0" y="0" width="900" height="100" fill="#CFDBD5"></rect><path d="M0 20L21.5 22.7C43 25.3 86 30.7 128.8 34.3C171.7 38 214.3 40 257.2 37.2C300 34.3 343 26.7 385.8 22.3C428.7 18 471.3 17 514.2 20C557 23 600 30 642.8 31.2C685.7 32.3 728.3 27.7 771.2 26.7C814 25.7 857 28.3 878.5 29.7L900 31L900 101L878.5 101C857 101 814 101 771.2 101C728.3 101 685.7 101 642.8 101C600 101 557 101 514.2 101C471.3 101 428.7 101 385.8 101C343 101 300 101 257.2 101C214.3 101 171.7 101 128.8 101C86 101 43 101 21.5 101L0 101Z" fill="#065143"></path><path d="M0 49L21.5 48.5C43 48 86 47 128.8 45.8C171.7 44.7 214.3 43.3 257.2 42.5C300 41.7 343 41.3 385.8 40.7C428.7 40 471.3 39 514.2 40.3C557 41.7 600 45.3 642.8 47.7C685.7 50 728.3 51 771.2 51.3C814 51.7 857 51.3 878.5 51.2L900 51L900 101L878.5 101C857 101 814 101 771.2 101C728.3 101 685.7 101 642.8 101C600 101 557 101 514.2 101C471.3 101 428.7 101 385.8 101C343 101 300 101 257.2 101C214.3 101 171.7 101 128.8 101C86 101 43 101 21.5 101L0 101Z" fill="#05453a"></path><path d="M0 48L21.5 47.5C43 47 86 46 128.8 46.8C171.7 47.7 214.3 50.3 257.2 52.3C300 54.3 343 55.7 385.8 56.5C428.7 57.3 471.3 57.7 514.2 58C557 58.3 600 58.7 642.8 60C685.7 61.3 728.3 63.7 771.2 65.2C814 66.7 857 67.3 878.5 67.7L900 68L900 101L878.5 101C857 101 814 101 771.2 101C728.3 101 685.7 101 642.8 101C600 101 557 101 514.2 101C471.3 101 428.7 101 385.8 101C343 101 300 101 257.2 101C214.3 101 171.7 101 128.8 101C86 101 43 101 21.5 101L0 101Z" fill="#043a31"></path><path d="M0 63L21.5 63.5C43 64 86 65 128.8 65.5C171.7 66 214.3 66 257.2 67.3C300 68.7 343 71.3 385.8 71.7C428.7 72 471.3 70 514.2 69.2C557 68.3 600 68.7 642.8 70.2C685.7 71.7 728.3 74.3 771.2 75.2C814 76 857 75 878.5 74.5L900 74L900 101L878.5 101C857 101 814 101 771.2 101C728.3 101 685.7 101 642.8 101C600 101 557 101 514.2 101C471.3 101 428.7 101 385.8 101C343 101 300 101 257.2 101C214.3 101 171.7 101 128.8 101C86 101 43 101 21.5 101L0 101Z" fill="#042f28"></path><path d="M0 81L21.5 81.8C43 82.7 86 84.3 128.8 85.2C171.7 86 214.3 86 257.2 85.2C300 84.3 343 82.7 385.8 80.8C428.7 79 471.3 77 514.2 78.5C557 80 600 85 642.8 86.8C685.7 88.7 728.3 87.3 771.2 86.7C814 86 857 86 878.5 86L900 86L900 101L878.5 101C857 101 814 101 771.2 101C728.3 101 685.7 101 642.8 101C600 101 557 101 514.2 101C471.3 101 428.7 101 385.8 101C343 101 300 101 257.2 101C214.3 101 171.7 101 128.8 101C86 101 43 101 21.5 101L0 101Z" fill="#03251f"></path></svg>