<svg id="visual" viewBox="0 0 900 250" width="900" height="250" xmlns="http://www.w3.org/2000/svg" xmlns:xlink="http://www.w3.org/1999/xlink" version="1.1"><rect x="0" y="0" width="900" height="250" fill="#CFDBD5"></rect><path d="M0 137L16.7 134.7C33.3 132.3 66.7 127.7 100 137.2C133.3 146.7 166.7 170.3 200 174C233.3 177.7 266.7 161.3 300 156.2C333.3 151 366.7 157 400 163.5C433.3 170 466.7 177 500 175.3C533.3 173.7 566.7 163.3 600 163.8C633.3 164.3 666.7 175.7 700 171.2C733.3 166.7 766.7 146.3 800 141C833.3 135.7 866.7 145.3 883.3 150.2L900 155L900 0L883.3 0C866.7 0 833.3 0 800 0C766.7 0 733.3 0 700 0C666.7 0 633.3 0 600 0C566.7 0 533.3 0 500 0C466.7 0 433.3 0 400 0C366.7 0 333.3 0 300 0C266.7 0 233.3 0 200 0C166.7 0 133.3 0 100 0C66.7 0 33.3 0 16.7 0L0 0Z" fill="#0a715f"></path><path d="M0 130L16.7 125.7C33.3 121.3 66.7 112.7 100 106.5C133.3 100.3 166.7 96.7 200 104.2C233.3 111.7 266.7 130.3 300 129.3C333.3 128.3 366.7 107.7 400 108.7C433.3 109.7 466.7 132.3 500 136.3C533.3 140.3 566.7 125.7 600 124.3C633.3 123 666.7 135 700 141C733.3 147 766.7 147 800 139.7C833.3 132.3 866.7 117.7 883.3 110.3L900 103L900 0L883.3 0C866.7 0 833.3 0 800 0C766.7 0 733.3 0 700 0C666.7 0 633.3 0 600 0C566.7 0 533.3 0 500 0C466.7 0 433.3 0 400 0C366.7 0 333.3 0 300 0C266.7 0 233.3 0 200 0C166.7 0 133.3 0 100 0C66.7 0 33.3 0 16.7 0L0 0Z" fill="#085e4f"></path><path d="M0 93L16.7 91.3C33.3 89.7 66.7 86.3 100 86.5C133.3 86.7 166.7 90.3 200 89.5C233.3 88.7 266.7 83.3 300 83.7C333.3 84 366.7 90 400 87.3C433.3 84.7 466.7 73.3 500 70C533.3 66.7 566.7 71.3 600 73.8C633.3 76.3 666.7 76.7 700 81.5C733.3 86.3 766.7 95.7 800 94C833.3 92.3 866.7 79.7 883.3 73.3L900 67L900 0L883.3 0C866.7 0 833.3 0 800 0C766.7 0 733.3 0 700 0C666.7 0 633.3 0 600 0C566.7 0 533.3 0 500 0C466.7 0 433.3 0 400 0C366.7 0 333.3 0 300 0C266.7 0 233.3 0 200 0C166.7 0 133.3 0 100 0C66.7 0 33.3 0 16.7 0L0 0Z" fill="#064b3f"></path><path d="M0 32L16.7 32.3C33.3 32.7 66.7 33.3 100 34.3C133.3 35.3 166.7 36.7 200 39.3C233.3 42 266.7 46 300 51C333.3 56 366.7 62 400 59.2C433.3 56.3 466.7 44.7 500 39.3C533.3 34 566.7 35 600 38.7C633.3 42.3 666.7 48.7 700 47.5C733.3 46.3 766.7 37.7 800 37.8C833.3 38 866.7 47 883.3 51.5L900 56L900 0L883.3 0C866.7 0 833.3 0 800 0C766.7 0 733.3 0 700 0C666.7 0 633.3 0 600 0C566.7 0 533.3 0 500 0C466.7 0 433.3 0 400 0C366.7 0 333.3 0 300 0C266.7 0 233.3 0 200 0C166.7 0 133.3 0 100 0C66.7 0 33.3 0 16.7 0L0 0Z" fill="#053930"></path></svg>